# xmcd CD database file
#
# Track frame offsets:
#	150
#	26990
#	50227
#	96555
#	122802
#	140720
#	176377
#	195185
#	216130
#	233497
#	267895
#	301267
#
# Disc length: 4282 seconds
#
# Revision: 2
# Processed by: cddbd v1.4b41PL1 Copyright (c) Steve Scherf et al.
# Submitted via: Feurio! 1.52 - http://www.feurio.com
#
DISCID=ac10b80c
DTITLE=Joe Bucher - Blues Fest 2000
DYEAR=1900
DGENRE=
TTITLE0=Joe's Boogie
TTITLE1=Louisiana Woman
TTITLE2=I'll Play The Blues For You
TTITLE3=Ice Man
TTITLE4=All Your Lovin'
TTITLE5=Tell Me Why
TTITLE6=I Smell Smoke
TTITLE7=Empty Arms Hotel
TTITLE8=Farewell
TTITLE9=Stormy Monday
TTITLE10=Sky Is Crying
TTITLE11=Red House
EXTD=
EXTT0=
EXTT1=
EXTT2=
EXTT3=
EXTT4=
EXTT5=
EXTT6=
EXTT7=
EXTT8=
EXTT9=
EXTT10=
EXTT11=
PLAYORDER=
